<?xml version="1.0" encoding="UTF-8"?>
<!DOCTYPE svg PUBLIC "-//W3C//DTD SVG 1.1//EN" "http://www.w3.org/Graphics/SVG/1.1/DTD/svg11.dtd">
<svg width="160mm" height="90mm" viewBox="0 0 16000 9000" version="1.1" xmlns="http://www.w3.org/2000/svg" stroke-width="28.222" stroke-linejoin="round" xml:space="preserve">
 <path fill="rgb(255,255,255)" stroke="none" d="M 7999,9004 L 0,9004 0,0 15997,0 15997,9004 7999,9004 Z"/>
 <path fill="none" stroke="rgb(179,179,179)" stroke-linejoin="round" d="M 9370,7196 L 3063,7196 3063,380 15678,380 15678,7196 9370,7196 Z"/>
 <path fill="none" stroke="rgb(179,179,179)" stroke-linejoin="round" d="M 15678,7195 L 3063,7195"/>
 <path fill="none" stroke="rgb(179,179,179)" stroke-linejoin="round" d="M 15678,6221 L 3063,6221"/>
 <path fill="none" stroke="rgb(179,179,179)" stroke-linejoin="round" d="M 15678,5247 L 3063,5247"/>
 <path fill="none" stroke="rgb(179,179,179)" stroke-linejoin="round" d="M 15678,4274 L 3063,4274"/>
 <path fill="none" stroke="rgb(179,179,179)" stroke-linejoin="round" d="M 15678,3300 L 3063,3300"/>
 <path fill="none" stroke="rgb(179,179,179)" stroke-linejoin="round" d="M 15678,2326 L 3063,2326"/>
 <path fill="none" stroke="rgb(179,179,179)" stroke-linejoin="round" d="M 15678,1352 L 3063,1352"/>
 <path fill="none" stroke="rgb(179,179,179)" stroke-linejoin="round" d="M 15678,378 L 3063,378"/>
 <path fill="none" stroke="rgb(179,179,179)" stroke-linejoin="round" d="M 3063,7345 L 3063,7195"/>
 <path fill="none" stroke="rgb(179,179,179)" stroke-linejoin="round" d="M 3063,7345 L 3063,7195"/>
 <path fill="none" stroke="rgb(179,179,179)" stroke-linejoin="round" d="M 4324,7345 L 4324,7195"/>
 <path fill="none" stroke="rgb(179,179,179)" stroke-linejoin="round" d="M 4324,7345 L 4324,7195"/>
 <path fill="none" stroke="rgb(179,179,179)" stroke-linejoin="round" d="M 5586,7345 L 5586,7195"/>
 <path fill="none" stroke="rgb(179,179,179)" stroke-linejoin="round" d="M 5586,7345 L 5586,7195"/>
 <path fill="none" stroke="rgb(179,179,179)" stroke-linejoin="round" d="M 6847,7345 L 6847,7195"/>
 <path fill="none" stroke="rgb(179,179,179)" stroke-linejoin="round" d="M 6847,7345 L 6847,7195"/>
 <path fill="none" stroke="rgb(179,179,179)" stroke-linejoin="round" d="M 8108,7345 L 8108,7195"/>
 <path fill="none" stroke="rgb(179,179,179)" stroke-linejoin="round" d="M 8108,7345 L 8108,7195"/>
 <path fill="none" stroke="rgb(179,179,179)" stroke-linejoin="round" d="M 9370,7345 L 9370,7195"/>
 <path fill="none" stroke="rgb(179,179,179)" stroke-linejoin="round" d="M 9370,7345 L 9370,7195"/>
 <path fill="none" stroke="rgb(179,179,179)" stroke-linejoin="round" d="M 10631,7345 L 10631,7195"/>
 <path fill="none" stroke="rgb(179,179,179)" stroke-linejoin="round" d="M 10631,7345 L 10631,7195"/>
 <path fill="none" stroke="rgb(179,179,179)" stroke-linejoin="round" d="M 11893,7345 L 11893,7195"/>
 <path fill="none" stroke="rgb(179,179,179)" stroke-linejoin="round" d="M 11893,7345 L 11893,7195"/>
 <path fill="none" stroke="rgb(179,179,179)" stroke-linejoin="round" d="M 13154,7345 L 13154,7195"/>
 <path fill="none" stroke="rgb(179,179,179)" stroke-linejoin="round" d="M 13154,7345 L 13154,7195"/>
 <path fill="none" stroke="rgb(179,179,179)" stroke-linejoin="round" d="M 14416,7345 L 14416,7195"/>
 <path fill="none" stroke="rgb(179,179,179)" stroke-linejoin="round" d="M 14416,7345 L 14416,7195"/>
 <path fill="none" stroke="rgb(179,179,179)" stroke-linejoin="round" d="M 15678,7345 L 15678,7195"/>
 <path fill="none" stroke="rgb(179,179,179)" stroke-linejoin="round" d="M 15678,7345 L 15678,7195"/>
 <path fill="none" stroke="rgb(179,179,179)" stroke-linejoin="round" d="M 3063,7195 L 15678,7195"/>
 <path fill="none" stroke="rgb(179,179,179)" stroke-linejoin="round" d="M 2913,7195 L 3063,7195"/>
 <path fill="none" stroke="rgb(179,179,179)" stroke-linejoin="round" d="M 2913,7195 L 3063,7195"/>
 <path fill="none" stroke="rgb(179,179,179)" stroke-linejoin="round" d="M 2913,6221 L 3063,6221"/>
 <path fill="none" stroke="rgb(179,179,179)" stroke-linejoin="round" d="M 2913,6221 L 3063,6221"/>
 <path fill="none" stroke="rgb(179,179,179)" stroke-linejoin="round" d="M 2913,5247 L 3063,5247"/>
 <path fill="none" stroke="rgb(179,179,179)" stroke-linejoin="round" d="M 2913,5247 L 3063,5247"/>
 <path fill="none" stroke="rgb(179,179,179)" stroke-linejoin="round" d="M 2913,4274 L 3063,4274"/>
 <path fill="none" stroke="rgb(179,179,179)" stroke-linejoin="round" d="M 2913,4274 L 3063,4274"/>
 <path fill="none" stroke="rgb(179,179,179)" stroke-linejoin="round" d="M 2913,3300 L 3063,3300"/>
 <path fill="none" stroke="rgb(179,179,179)" stroke-linejoin="round" d="M 2913,3300 L 3063,3300"/>
 <path fill="none" stroke="rgb(179,179,179)" stroke-linejoin="round" d="M 2913,2326 L 3063,2326"/>
 <path fill="none" stroke="rgb(179,179,179)" stroke-linejoin="round" d="M 2913,2326 L 3063,2326"/>
 <path fill="none" stroke="rgb(179,179,179)" stroke-linejoin="round" d="M 2913,1352 L 3063,1352"/>
 <path fill="none" stroke="rgb(179,179,179)" stroke-linejoin="round" d="M 2913,1352 L 3063,1352"/>
 <path fill="none" stroke="rgb(179,179,179)" stroke-linejoin="round" d="M 2913,378 L 3063,378"/>
 <path fill="none" stroke="rgb(179,179,179)" stroke-linejoin="round" d="M 2913,378 L 3063,378"/>
 <path fill="none" stroke="rgb(179,179,179)" stroke-linejoin="round" d="M 3063,7195 L 3063,379"/>
 <path fill="rgb(255,66,14)" stroke="none" d="M 14731,7195 L 15362,7195 15362,7172 14731,7172 14731,7195 Z"/>
 <path fill="rgb(255,66,14)" stroke="none" d="M 13470,7195 L 14101,7195 14101,6969 13470,6969 13470,7195 Z"/>
 <path fill="rgb(255,66,14)" stroke="none" d="M 12208,7195 L 12839,7195 12839,6179 12208,6179 12208,7195 Z"/>
 <path fill="rgb(255,66,14)" stroke="none" d="M 10947,7195 L 11577,7195 11577,4488 10947,4488 10947,7195 Z"/>
 <path fill="rgb(255,66,14)" stroke="none" d="M 9685,7195 L 10316,7195 10316,2457 9685,2457 9685,7195 Z"/>
 <path fill="rgb(255,66,14)" stroke="none" d="M 8423,7195 L 9054,7195 9054,1509 8423,1509 8423,7195 Z"/>
 <path fill="rgb(255,66,14)" stroke="none" d="M 7163,7195 L 7794,7195 7794,2457 7163,2457 7163,7195 Z"/>
 <path fill="rgb(255,66,14)" stroke="none" d="M 5901,7195 L 6532,7195 6532,4488 5901,4488 5901,7195 Z"/>
 <path fill="rgb(255,66,14)" stroke="none" d="M 4640,7195 L 5270,7195 5270,6179 4640,6179 4640,7195 Z"/>
 <path fill="rgb(255,66,14)" stroke="none" d="M 3378,7195 L 4009,7195 4009,6969 3378,6969 3378,7195 Z"/>
 <text class="TextShape"><tspan class="TextParagraph" font-family="Liberation Sans, sans-serif" font-size="353px" font-weight="400"><tspan class="TextPosition" x="3600" y="7763"><tspan fill="rgb(0,0,0)" stroke="none">1</tspan></tspan></tspan></text>
 <text class="TextShape"><tspan class="TextParagraph" font-family="Liberation Sans, sans-serif" font-size="353px" font-weight="400"><tspan class="TextPosition" x="4862" y="7763"><tspan fill="rgb(0,0,0)" stroke="none">2</tspan></tspan></tspan></text>
 <text class="TextShape"><tspan class="TextParagraph" font-family="Liberation Sans, sans-serif" font-size="353px" font-weight="400"><tspan class="TextPosition" x="6124" y="7763"><tspan fill="rgb(0,0,0)" stroke="none">3</tspan></tspan></tspan></text>
 <text class="TextShape"><tspan class="TextParagraph" font-family="Liberation Sans, sans-serif" font-size="353px" font-weight="400"><tspan class="TextPosition" x="7385" y="7763"><tspan fill="rgb(0,0,0)" stroke="none">4</tspan></tspan></tspan></text>
 <text class="TextShape"><tspan class="TextParagraph" font-family="Liberation Sans, sans-serif" font-size="353px" font-weight="400"><tspan class="TextPosition" x="8647" y="7763"><tspan fill="rgb(0,0,0)" stroke="none">5</tspan></tspan></tspan></text>
 <text class="TextShape"><tspan class="TextParagraph" font-family="Liberation Sans, sans-serif" font-size="353px" font-weight="400"><tspan class="TextPosition" x="9908" y="7763"><tspan fill="rgb(0,0,0)" stroke="none">6</tspan></tspan></tspan></text>
 <text class="TextShape"><tspan class="TextParagraph" font-family="Liberation Sans, sans-serif" font-size="353px" font-weight="400"><tspan class="TextPosition" x="11170" y="7763"><tspan fill="rgb(0,0,0)" stroke="none">7</tspan></tspan></tspan></text>
 <text class="TextShape"><tspan class="TextParagraph" font-family="Liberation Sans, sans-serif" font-size="353px" font-weight="400"><tspan class="TextPosition" x="12432" y="7763"><tspan fill="rgb(0,0,0)" stroke="none">8</tspan></tspan></tspan></text>
 <text class="TextShape"><tspan class="TextParagraph" font-family="Liberation Sans, sans-serif" font-size="353px" font-weight="400"><tspan class="TextPosition" x="13693" y="7763"><tspan fill="rgb(0,0,0)" stroke="none">9</tspan></tspan></tspan></text>
 <text class="TextShape"><tspan class="TextParagraph" font-family="Liberation Sans, sans-serif" font-size="353px" font-weight="400"><tspan class="TextPosition" x="14863" y="7763"><tspan fill="rgb(0,0,0)" stroke="none">10</tspan></tspan></tspan></text>
 <text class="TextShape"><tspan class="TextParagraph" font-family="Liberation Sans, sans-serif" font-size="353px" font-weight="400"><tspan class="TextPosition" x="1331" y="7316"><tspan fill="rgb(0,0,0)" stroke="none">0.00E+00</tspan></tspan></tspan></text>
 <text class="TextShape"><tspan class="TextParagraph" font-family="Liberation Sans, sans-serif" font-size="353px" font-weight="400"><tspan class="TextPosition" x="1331" y="6342"><tspan fill="rgb(0,0,0)" stroke="none">5.00E+39</tspan></tspan></tspan></text>
 <text class="TextShape"><tspan class="TextParagraph" font-family="Liberation Sans, sans-serif" font-size="353px" font-weight="400"><tspan class="TextPosition" x="1331" y="5368"><tspan fill="rgb(0,0,0)" stroke="none">1.00E+40</tspan></tspan></tspan></text>
 <text class="TextShape"><tspan class="TextParagraph" font-family="Liberation Sans, sans-serif" font-size="353px" font-weight="400"><tspan class="TextPosition" x="1331" y="4394"><tspan fill="rgb(0,0,0)" stroke="none">1.50E+40</tspan></tspan></tspan></text>
 <text class="TextShape"><tspan class="TextParagraph" font-family="Liberation Sans, sans-serif" font-size="353px" font-weight="400"><tspan class="TextPosition" x="1331" y="3420"><tspan fill="rgb(0,0,0)" stroke="none">2.00E+40</tspan></tspan></tspan></text>
 <text class="TextShape"><tspan class="TextParagraph" font-family="Liberation Sans, sans-serif" font-size="353px" font-weight="400"><tspan class="TextPosition" x="1331" y="2446"><tspan fill="rgb(0,0,0)" stroke="none">2.50E+40</tspan></tspan></tspan></text>
 <text class="TextShape"><tspan class="TextParagraph" font-family="Liberation Sans, sans-serif" font-size="353px" font-weight="400"><tspan class="TextPosition" x="1331" y="1472"><tspan fill="rgb(0,0,0)" stroke="none">3.00E+40</tspan></tspan></tspan></text>
 <text class="TextShape"><tspan class="TextParagraph" font-family="Liberation Sans, sans-serif" font-size="353px" font-weight="400"><tspan class="TextPosition" x="1331" y="498"><tspan fill="rgb(0,0,0)" stroke="none">3.50E+40</tspan></tspan></tspan></text>
 <text class="TextShape"><tspan class="TextParagraph" font-family="Liberation Sans, sans-serif" font-size="318px" font-weight="400"><tspan class="TextPosition" x="7670" y="8410"><tspan fill="rgb(0,0,0)" stroke="none"># of Heroes</tspan></tspan></tspan></text>
 <text class="TextShape" transform="translate(837,5546) rotate(-90) translate(-837,-5546)"><tspan class="TextParagraph" font-family="Liberation Sans, sans-serif" font-size="318px" font-weight="400"><tspan class="TextPosition" x="837" y="5546"><tspan fill="rgb(0,0,0)" stroke="none"># of Layouts Possible</tspan></tspan></tspan></text>
</svg>